<?xml version="1.0" encoding="utf-8"?>
<!-- Generator: Adobe Illustrator 16.0.0, SVG Export Plug-In . SVG Version: 6.00 Build 0)  -->
<!DOCTYPE svg PUBLIC "-//W3C//DTD SVG 1.1//EN" "http://www.w3.org/Graphics/SVG/1.1/DTD/svg11.dtd">
<svg version="1.1" id="Layer_1" xmlns="http://www.w3.org/2000/svg" xmlns:xlink="http://www.w3.org/1999/xlink" x="0px" y="0px"
	 width="65.333px" height="50.664px" viewBox="0 0 65.333 50.664" enable-background="new 0 0 65.333 50.664" xml:space="preserve">
<g>
	<g>
		<path d="M57.835,37.095C50.79,30.14,43.745,23.186,36.699,16.231c-2.295-2.267-5.833,1.268-3.535,3.535
			C40.209,26.721,47.255,33.676,54.3,40.63C56.596,42.896,60.133,39.362,57.835,37.095L57.835,37.095z"/>
	</g>
</g>
<g>
	<g>
		<path d="M32.831,16.234c-6.955,7.045-13.909,14.091-20.863,21.136c-2.266,2.296,1.268,5.833,3.535,3.535
			c6.955-7.045,13.909-14.091,20.863-21.136C38.632,17.473,35.098,13.937,32.831,16.234L32.831,16.234z"/>
	</g>
</g>
</svg>
