<?xml version="1.0" encoding="utf-8"?>
<!-- Generator: Adobe Illustrator 16.0.0, SVG Export Plug-In . SVG Version: 6.00 Build 0)  -->
<!DOCTYPE svg PUBLIC "-//W3C//DTD SVG 1.1//EN" "http://www.w3.org/Graphics/SVG/1.1/DTD/svg11.dtd">
<svg version="1.1" id="Layer_1" xmlns="http://www.w3.org/2000/svg" xmlns:xlink="http://www.w3.org/1999/xlink" x="0px" y="0px"
	 width="65.333px" height="50.664px" viewBox="0 0 65.333 50.664" enable-background="new 0 0 65.333 50.664" xml:space="preserve">
<circle stroke="#000000" stroke-miterlimit="10" cx="44.333" cy="30.664" r="3.137"/>
<circle stroke="#000000" stroke-miterlimit="10" cx="52.999" cy="30.664" r="3.137"/>
<path fill="none" stroke="#000000" stroke-miterlimit="10" d="M61.333,38.664c0,1.104-0.896,2-2,2H7.667c-1.104,0-2-0.896-2-2v-18
	c0-1.104,0.896-2,2-2h23.25h28.417c1.104,0,2,0.896,2,2V38.664z"/>
<rect x="11.667" y="23.581" stroke="#000000" stroke-miterlimit="10" width="4" height="13"/>
<rect x="7.667" y="28.789" stroke="#000000" stroke-miterlimit="10" width="12" height="3.75"/>
<rect x="25.667" y="29.081" stroke="#000000" stroke-miterlimit="10" width="3.5" height="2.5"/>
<rect x="30.917" y="29.081" stroke="#000000" stroke-miterlimit="10" width="3.5" height="2.5"/>
<path fill="none" stroke="#000000" stroke-miterlimit="10" d="M32.667,18.082c0,0-2.875-4.125,4.125-5.875s2.75-8.875,2.75-8.875"/>
</svg>
